<svg xmlns="http://www.w3.org/2000/svg" width="1100" height="240" viewBox="0 0 1100 240" role="img" aria-labelledby="title desc">
<title id="title">AS-IS analysis evidence flow</title><desc id="desc">Frozen evidence feeds deterministic aggregation, diagnostics, ownership and control traceability. The evaluation answer key is blocked from runtime analysis.</desc>
<rect width="1100" height="240" fill="white"/><g fill="none" stroke="#334155" stroke-width="2"><path d="M180 80H300"/><path d="M460 80H560"/><path d="M460 80L560 150"/><path d="M460 80L760 80"/><path d="M700 150H820"/><path d="M900 115H1000"/><path d="M180 190L300 110" stroke-dasharray="8 6"/></g>
<g font-family="Arial, sans-serif" font-size="15" text-anchor="middle"><g fill="#f8fafc" stroke="#334155"><rect x="20" y="45" width="160" height="70" rx="10"/><rect x="300" y="45" width="160" height="70" rx="10"/><rect x="560" y="45" width="140" height="70" rx="10"/><rect x="560" y="130" width="140" height="55" rx="10"/><rect x="760" y="45" width="140" height="70" rx="10"/><rect x="820" y="130" width="160" height="55" rx="10"/><rect x="20" y="160" width="160" height="55" rx="10" fill="#fff7ed"/></g>
<text x="100" y="77">Frozen synthetic</text><text x="100" y="98">evidence</text><text x="380" y="77">Deterministic</text><text x="380" y="98">aggregation</text><text x="630" y="77">Step</text><text x="630" y="98">diagnostics</text><text x="630" y="162">Ownership</text><text x="830" y="77">Control</text><text x="830" y="98">traceability</text><text x="900" y="162">Evidence-linked findings</text><text x="100" y="193">Evaluation answer key</text></g></svg>
